HIERARCHY
ROOT Hips
{
  OFFSET 5.84602e-005 68.8428 3.50346
  CHANNELS 6 Xposition Yposition Zposition Zrotation Xrotation Yrotation
  JOINT Spine
  {
    OFFSET 0 8.597 -4.6522
    CHANNELS 3 Zrotation Xrotation Yrotation
    JOINT Spine1
    {
      OFFSET 0 7.8454 0.4098
      CHANNELS 3 Zrotation Xrotation Yrotation
      JOINT Spine2
      {
        OFFSET 0 9.7078 -2.1609
        CHANNELS 3 Zrotation Xrotation Yrotation
        JOINT Neck
        {
          OFFSET 0 21.8761 -0.4549
          CHANNELS 3 Zrotation Xrotation Yrotation
          JOINT Head
          {
            OFFSET 0 12.3537 3.3602
            CHANNELS 3 Zrotation Xrotation Yrotation
            End Site
            {
              OFFSET 0.0001 18.9506 0.5657
            }
          }
        }
        JOINT LeftShoulder
        {
          OFFSET 2.2086 21.1115 7.2329
          CHANNELS 3 Zrotation Xrotation Yrotation
          JOINT LeftArm
          {
            OFFSET 13.1193 3.0282 -4.8998
            CHANNELS 3 Zrotation Xrotation Yrotation
            JOINT LeftForeArm
            {
              OFFSET 27.4081 -0.0973053 -0.2375
              CHANNELS 3 Zrotation Xrotation Yrotation
              JOINT LeftHand
              {
                OFFSET 22.8641 0.0662994 -0.1369
                CHANNELS 3 Zrotation Xrotation Yrotation
                JOINT LeftHandIndex1
                {
                  OFFSET 8.8614 0.775009 2.4612
                  CHANNELS 3 Zrotation Xrotation Yrotation
                  JOINT LeftHandIndex2
                  {
                    OFFSET 3.3146 -0.808304 0.5841
                    CHANNELS 3 Zrotation Xrotation Yrotation
                    JOINT LeftHandIndex3
                    {
                      OFFSET 2.2628 -0.552002 0.3989
                      CHANNELS 3 Zrotation Xrotation Yrotation
                      End Site
                      {
                        OFFSET 1.6102 -0.4807 0.2612
                      }
                    }
                  }
                }
                JOINT LeftHandMiddle1
                {
                  OFFSET 8.9937 0.895004 0.2143
                  CHANNELS 3 Zrotation Xrotation Yrotation
                  JOINT LeftHandMiddle2
                  {
                    OFFSET 4.0984 0.0113983 -0.0242
                    CHANNELS 3 Zrotation Xrotation Yrotation
                    JOINT LeftHandMiddle3
                    {
                      OFFSET 2.2716 0.00689697 -0.0138001
                      CHANNELS 3 Zrotation Xrotation Yrotation
                      End Site
                      {
                        OFFSET 2.0404 -0.1441 0.0027
                      }
                    }
                  }
                }
                JOINT LeftHandRing1
                {
                  OFFSET 8.5234 0.597198 -2.0164
                  CHANNELS 3 Zrotation Xrotation Yrotation
                  JOINT LeftHandRing2
                  {
                    OFFSET 3.7188 -0.188293 -0.2328
                    CHANNELS 3 Zrotation Xrotation Yrotation
                    JOINT LeftHandRing3
                    {
                      OFFSET 2.1191 -0.106598 -0.1332
                      CHANNELS 3 Zrotation Xrotation Yrotation
                      End Site
                      {
                        OFFSET 1.8737 -0.2304 -0.0886
                      }
                    }
                  }
                }
                JOINT LeftHandPinky1
                {
                  OFFSET 7.9094 -0.601089 -3.4825
                  CHANNELS 3 Zrotation Xrotation Yrotation
                  JOINT LeftHandPinky2
                  {
                    OFFSET 2.2874 -0.477005 -0.6314
                    CHANNELS 3 Zrotation Xrotation Yrotation
                    JOINT LeftHandPinky3
                    {
                      OFFSET 1.6774 -0.349396 -0.4633
                      CHANNELS 3 Zrotation Xrotation Yrotation
                      End Site
                      {
                        OFFSET 1.4888 -0.4091 -0.3416
                      }
                    }
                  }
                }
                JOINT LeftHandThumb1
                {
                  OFFSET 1.833 -1.3875 1.3896
                  CHANNELS 3 Zrotation Xrotation Yrotation
                  JOINT LeftHandThumb2
                  {
                    OFFSET 3.4129 -1.121 2.5732
                    CHANNELS 3 Zrotation Xrotation Yrotation
                    JOINT LeftHandThumb3
                    {
                      OFFSET 2.2474 -0.804199 1.6192
                      CHANNELS 3 Zrotation Xrotation Yrotation
                      End Site
                      {
                        OFFSET 1.6527 -0.5689 1.1317
                      }
                    }
                  }
                }
              }
            }
          }
        }
        JOINT RightShoulder
        {
          OFFSET -2.2086 21.1115 7.2329
          CHANNELS 3 Zrotation Xrotation Yrotation
          JOINT RightArm
          {
            OFFSET -13.1216 3.0287 -4.9007
            CHANNELS 3 Zrotation Xrotation Yrotation
            JOINT RightForeArm
            {
              OFFSET -27.4081 -0.0973053 -0.2375
              CHANNELS 3 Zrotation Xrotation Yrotation
              JOINT RightHand
              {
                OFFSET -22.8641 0.0664063 -0.1369
                CHANNELS 3 Zrotation Xrotation Yrotation
                JOINT RightHandIndex1
                {
                  OFFSET -8.8614 0.774994 2.4612
                  CHANNELS 3 Zrotation Xrotation Yrotation
                  JOINT RightHandIndex2
                  {
                    OFFSET -3.3146 -0.808304 0.5841
                    CHANNELS 3 Zrotation Xrotation Yrotation
                    JOINT RightHandIndex3
                    {
                      OFFSET -2.2628 -0.552002 0.3989
                      CHANNELS 3 Zrotation Xrotation Yrotation
                      End Site
                      {
                        OFFSET -1.6102 -0.4807 0.2612
                      }
                    }
                  }
                }
                JOINT RightHandMiddle1
                {
                  OFFSET -8.9937 0.894989 0.2143
                  CHANNELS 3 Zrotation Xrotation Yrotation
                  JOINT RightHandMiddle2
                  {
                    OFFSET -4.0984 0.0113983 -0.0242
                    CHANNELS 3 Zrotation Xrotation Yrotation
                    JOINT RightHandMiddle3
                    {
                      OFFSET -2.2716 0.00691223 -0.0138001
                      CHANNELS 3 Zrotation Xrotation Yrotation
                      End Site
                      {
                        OFFSET -2.0404 -0.1441 0.0027
                      }
                    }
                  }
                }
                JOINT RightHandRing1
                {
                  OFFSET -8.5234 0.597198 -2.0164
                  CHANNELS 3 Zrotation Xrotation Yrotation
                  JOINT RightHandRing2
                  {
                    OFFSET -3.7188 -0.188309 -0.2328
                    CHANNELS 3 Zrotation Xrotation Yrotation
                    JOINT RightHandRing3
                    {
                      OFFSET -2.1191 -0.106598 -0.1332
                      CHANNELS 3 Zrotation Xrotation Yrotation
                      End Site
                      {
                        OFFSET -1.8737 -0.2304 -0.0886
                      }
                    }
                  }
                }
                JOINT RightHandPinky1
                {
                  OFFSET -7.9094 -0.601105 -3.4825
                  CHANNELS 3 Zrotation Xrotation Yrotation
                  JOINT RightHandPinky2
                  {
                    OFFSET -2.2874 -0.477005 -0.6314
                    CHANNELS 3 Zrotation Xrotation Yrotation
                    JOINT RightHandPinky3
                    {
                      OFFSET -1.6774 -0.349396 -0.4633
                      CHANNELS 3 Zrotation Xrotation Yrotation
                      End Site
                      {
                        OFFSET -1.4888 -0.4091 -0.3416
                      }
                    }
                  }
                }
                JOINT RightHandThumb1
                {
                  OFFSET -1.833 -1.38751 1.3896
                  CHANNELS 3 Zrotation Xrotation Yrotation
                  JOINT RightHandThumb2
                  {
                    OFFSET -3.41299 -1.12099 2.5732
                    CHANNELS 3 Zrotation Xrotation Yrotation
                    JOINT RightHandThumb3
                    {
                      OFFSET -2.24741 -0.804108 1.6192
                      CHANNELS 3 Zrotation Xrotation Yrotation
                      End Site
                      {
                        OFFSET -1.6527 -0.5689 1.1317
                      }
                    }
                  }
                }
              }
            }
          }
        }
      }
    }
  }
  JOINT RightUpLeg
  {
    OFFSET -9.1966 3.8861 -0.7581
    CHANNELS 3 Zrotation Xrotation Yrotation
    JOINT RightLeg
    {
      OFFSET -0.7359 -41.0265 0
      CHANNELS 3 Zrotation Xrotation Yrotation
      JOINT RightFoot
      {
        OFFSET 0 -40.2855 0
        CHANNELS 3 Zrotation Xrotation Yrotation
        JOINT RightToeBase
        {
          OFFSET 0 -5.6122 11.7359
          CHANNELS 3 Zrotation Xrotation Yrotation
          End Site
          {
            OFFSET 0 0 7.8731
          }
        }
      }
    }
  }
  JOINT LeftUpLeg
  {
    OFFSET 9.1965 3.8864 -0.7581
    CHANNELS 3 Zrotation Xrotation Yrotation
    JOINT LeftLeg
    {
      OFFSET 0.7359 -41.0268 0
      CHANNELS 3 Zrotation Xrotation Yrotation
      JOINT LeftFoot
      {
        OFFSET 0 -40.2855 0
        CHANNELS 3 Zrotation Xrotation Yrotation
        JOINT LeftToeBase
        {
          OFFSET 0 -5.6122 11.7359
          CHANNELS 3 Zrotation Xrotation Yrotation
          End Site
          {
            OFFSET 0 0 7.8731
          }
        }
      }
    }
  }
}
MOTION
Frames:	4
Frame Time:	0.0333333
0.000408588 23.814 -63.8796 0 70.9928 -0 -3.49326 5.21396 0.2188 -7.05054 10.4047 0.762489 -7.05054 10.4047 0.762486 -10.9116 -45.962 -7.70431 -17.7489 -5.75559 -2.98124 3.54757 -34.3358 -2.51624 -78.0795 -13.4454 -81.0786 61.7217 -0.399358 -102.893 -30.545 -52.5976 0.624989 1.39659e-031 2.68359e-015 -2.98177e-015 3.10353e-032 1.98785e-015 -8.94531e-016 3.18055e-015 1.49089e-015 2.98177e-016 1.39659e-031 2.68359e-015 -2.98177e-015 -0.0146162 -8.93608e-005 5.07341e-007 -6.36111e-015 2.43511e-015 2.18663e-015 1.39659e-031 2.68359e-015 -2.98177e-015 -0.0187272 -0.00117722 5.44109e-005 3.18055e-015 1.63997e-015 9.93923e-017 1.39659e-031 2.68359e-015 -2.98177e-015 -0.0122616 -0.00324414 0.000676578 -3.16808e-007 -1.54035e-006 9.01169e-007 1.39659e-031 2.68359e-015 -2.98177e-015 3.10353e-032 1.98785e-015 -8.94531e-016 3.18055e-015 1.49089e-015 2.98177e-016 -1.41126 -4.34433 22.1126 82.5975 -16.8401 88.4573 -64.7792 -25.5862 85.8924 4.19547 -28.7237 -24.6625 7.95139e-016 -2.48481e-015 1.59028e-015 4.1399e-006 1.83329e-007 -2.46782e-006 3.97569e-016 -5.76476e-015 -1.59028e-015 7.95139e-016 -2.48481e-015 1.59028e-015 0.0149959 -9.07697e-005 2.27452e-006 -3.97569e-016 -8.79622e-015 2.38542e-015 7.95139e-016 -2.48481e-015 1.59028e-015 0.0189941 -0.00119387 -6.05854e-005 -3.97569e-016 -8.10048e-015 1.59028e-015 7.95139e-016 -2.48481e-015 1.59028e-015 0.0122867 -0.00325531 -0.000675101 3.97569e-016 -2.5345e-015 -0 7.95139e-016 -2.48481e-015 1.59028e-015 4.1399e-006 1.83329e-007 -2.46782e-006 3.97569e-016 -5.76476e-015 -1.59028e-015 -89.6888 -60.1829 -78.011 153.452 60.3641 -163.179 -7.76516 29.1791 -6.62593 2.3872e-006 1.7515e-006 9.52359e-007 89.705 -60.2264 78.0154 -153.41 60.3495 163.16 7.81467 28.5852 6.56599 -4.45763e-006 -2.93455e-006 -9.4799e-006 
0.000406744 23.8351 -63.8325 0 70.9928 -0 -3.49385 5.24816 0.222164 -7.05275 10.4729 0.771527 -7.05275 10.4729 0.771528 -10.9298 -46.0529 -7.72957 -17.7442 -5.60466 -2.93272 3.54413 -34.4106 -2.39865 -77.9607 -13.3638 -81.1255 61.6608 -0.629266 -103.047 -30.5375 -52.7119 0.795677 6.36111e-015 -7.45443e-016 -2.98177e-015 3.18055e-015 1.83876e-015 -1.2921e-015 9.31058e-033 1.3418e-015 -3.97569e-016 6.36111e-015 -7.45443e-016 -2.98177e-015 -0.0146097 -9.14001e-005 3.28962e-006 3.18055e-015 -5.86415e-015 -1.88845e-015 6.36111e-015 -7.45443e-016 -2.98177e-015 -0.0187355 -0.00117213 6.49568e-005 8.01745e-032 -7.70291e-015 5.96354e-016 6.36111e-015 -7.45443e-016 -2.98177e-015 -0.0122564 -0.00324516 0.000680336 3.18055e-015 -1.98785e-015 -7.95139e-016 6.36111e-015 -7.45443e-016 -2.98177e-015 3.18055e-015 1.83876e-015 -1.2921e-015 9.31058e-033 1.3418e-015 -3.97569e-016 -1.42292 -4.44923 22.0708 82.6292 -16.8603 88.4553 -64.7686 -25.5078 85.8309 4.12184 -28.7479 -24.5369 1.97834e-006 2.16158e-006 -1.35957e-006 4.13992e-006 1.83239e-007 -2.4678e-006 4.13992e-006 1.83239e-007 -2.4678e-006 1.97834e-006 2.16158e-006 -1.35957e-006 0.0150038 -8.98576e-005 -1.93139e-006 4.13989e-006 1.82916e-007 -2.46783e-006 1.97834e-006 2.16158e-006 -1.35957e-006 0.0190105 -0.0011968 -6.94364e-005 4.13986e-006 1.82834e-007 -2.46787e-006 1.97834e-006 2.16158e-006 -1.35957e-006 0.0122747 -0.00325733 -0.000683884 2.29898e-006 1.36537e-006 -1.97766e-006 1.97834e-006 2.16158e-006 -1.35957e-006 4.13992e-006 1.83239e-007 -2.4678e-006 4.13992e-006 1.83239e-007 -2.4678e-006 -89.5332 -60.1901 -77.8618 153.36 60.4243 -163.094 -7.76715 29.1794 -6.62166 1.60694e-006 -5.38322e-007 -4.17619e-006 89.5489 -60.2338 77.8654 -153.317 60.4101 163.075 7.81663 28.5855 6.5617 2.93175e-006 -4.05505e-006 -9.91756e-007 
0.00040858 23.814 -63.8796 0 70.9928 -0 -3.4933 5.21402 0.218795 -7.05062 10.4047 0.762476 -7.05062 10.4047 0.762479 -10.9116 -45.9621 -7.70424 -17.7488 -5.7556 -2.98124 3.54756 -34.3358 -2.51624 -78.0795 -13.4453 -81.0786 61.7216 -0.399355 -102.893 -30.545 -52.5976 0.625034 1.63797e-033 -9.44227e-016 9.93923e-017 -3.18055e-015 2.23633e-015 8.94531e-016 -3.72854e-031 8.59744e-015 2.48481e-015 1.63797e-033 -9.44227e-016 9.93923e-017 -0.0146026 -8.88273e-005 -1.35564e-006 6.36111e-015 2.23633e-015 -0 1.63797e-033 -9.44227e-016 9.93923e-017 -0.0187336 -0.00117562 5.83587e-005 -2.37937e-032 2.28602e-015 5.96354e-016 1.63797e-033 -9.44227e-016 9.93923e-017 -0.0122455 -0.00324297 0.000684489 -3.16824e-007 -1.54033e-006 9.01157e-007 1.63797e-033 -9.44227e-016 9.93923e-017 -3.18055e-015 2.23633e-015 8.94531e-016 -3.72854e-031 8.59744e-015 2.48481e-015 -1.41126 -4.34431 22.1126 82.5975 -16.8401 88.4573 -64.7792 -25.5861 85.8924 4.19549 -28.7236 -24.6625 2.16162e-006 -1.97829e-006 -1.10824e-006 4.32323e-006 -3.95658e-006 -2.21647e-006 -1.84225e-006 1.18256e-006 4.90235e-007 2.16162e-006 -1.97829e-006 -1.10824e-006 0.014994 -0.000101765 -1.51889e-006 7.95139e-016 3.47873e-015 -2.38542e-015 2.16162e-006 -1.97829e-006 -1.10824e-006 0.018974 -0.00119271 -6.5385e-005 -3.97569e-016 3.67752e-015 -0 2.16162e-006 -1.97829e-006 -1.10824e-006 0.0122624 -0.00324549 -0.000672263 3.97569e-016 -4.47266e-016 -1.59028e-015 2.16162e-006 -1.97829e-006 -1.10824e-006 4.32323e-006 -3.95658e-006 -2.21647e-006 -1.84225e-006 1.18256e-006 4.90235e-007 -89.6886 -60.183 -78.0109 153.452 60.3641 -163.179 -7.76516 29.1791 -6.62593 -8.68049e-007 -4.55184e-006 -6.58477e-006 89.705 -60.2264 78.0153 -153.41 60.3495 163.16 7.81465 28.5851 6.56598 3.09247e-006 -5.68426e-006 2.69727e-006 
0.000411569 23.7676 -63.9831 0 70.9928 -0 -3.4922 5.1386 0.211387 -7.04616 10.2547 0.74261 -7.04616 10.2547 0.742611 -10.8719 -45.762 -7.64902 -17.7599 -6.08764 -3.08813 3.55619 -34.1711 -2.77437 -78.3409 -13.625 -80.9757 61.8522 0.0949478 -102.547 -30.5582 -52.3455 0.252019 -9.54166e-015 3.00662e-014 9.54166e-015 -6.36111e-015 2.70844e-014 1.09332e-014 -6.36111e-015 3.08116e-014 1.11319e-014 -9.54166e-015 3.00662e-014 9.54166e-015 -0.0146135 -9.67171e-005 -1.82887e-006 -6.36111e-015 -1.73937e-015 -9.93923e-016 -9.54166e-015 3.00662e-014 9.54166e-015 -0.0187824 -0.00117814 6.34495e-005 3.18055e-015 1.2921e-015 7.95139e-016 -9.54166e-015 3.00662e-014 9.54166e-015 -0.0122851 -0.00324563 0.000675849 3.18055e-015 2.33572e-015 7.95139e-016 -9.54166e-015 3.00662e-014 9.54166e-015 -6.36111e-015 2.70844e-014 1.09332e-014 -6.36111e-015 3.08116e-014 1.11319e-014 -1.38603 -4.11368 22.2045 82.5278 -16.7956 88.4616 -64.8018 -25.7582 86.0289 4.35799 -28.6699 -24.9385 -1.98785e-015 8.64713e-015 -1.59028e-015 -1.98785e-015 1.49585e-014 -1.59028e-015 -1.19271e-015 1.19271e-014 -2.38542e-015 -1.98785e-015 8.64713e-015 -1.59028e-015 0.0150045 -9.83409e-005 -2.22139e-006 1.19271e-015 -1.08338e-014 7.95139e-016 -1.98785e-015 8.64713e-015 -1.59028e-015 0.018996 -0.00118992 -5.57293e-005 1.19271e-015 2.93207e-015 3.18055e-015 -1.98785e-015 8.64713e-015 -1.59028e-015 0.0122576 -0.00324102 -0.000675199 -7.95139e-016 6.85807e-015 -0 -1.98785e-015 8.64713e-015 -1.59028e-015 -1.98785e-015 1.49585e-014 -1.59028e-015 -1.19271e-015 1.19271e-014 -2.38542e-015 -90.0304 -60.1666 -78.3386 153.654 60.2315 -163.363 -7.76074 29.1784 -6.63539 -6.03285e-006 -2.58216e-006 -4.10253e-006 90.0486 -60.2094 78.3452 -153.613 60.2159 163.345 7.81029 28.5844 6.57542 2.53032e-006 -4.45901e-006 -1.1041e-005 
